# ProBuilder 4.1.0
# https://unity3d.com/unity/features/worldbuilding/probuilder
# 19/11/2019 08:58:37

mtllib ./Road_Triple.mtl
o Road Triple

g Road Triple
v -0.5 -0.07731247 0
v 0 -0.07731247 0
v -0.25 -0.07731247 0.4330127
v 0.25 -0.07731247 0.4330127
v 0.5 -0.07731247 -4.371139E-08
v 0.2499999 -0.07731247 -0.4330127
v -0.2499999 -0.07731247 -0.4330127
v 0.25 0.07730865 -0.433012
v 0.5 0.07730865 0
v -0.25 0.07730865 0.433012
v 0.25 0.07730865 0.433012
v 0 0.07730865 0.433012
v 0.3125076 0.05632401 0.3247585
v 1.525879E-05 0.05632401 0.1578655
v 0.3125 0.02609634 0.3247604
v 7.629395E-06 0.02609634 0.1578674
v -0.3124924 0.05632401 0.3247585
v -0.3125 0.02609634 0.3247604
v 0.28125 0.07730865 0.3788855
v 0 0.07730865 0.2301884
v -0.28125 0.07730865 0.3788856
v -0.375 0.02609634 0.2165089
v -0.4375 0.02609634 0.1082554
v -0.4374924 0.05632401 0.1082535
v -0.46875 0.07730865 0.05412662
v -0.5 0.07730865 0
v 0.46875 0.07730865 0.0541265
v 0.4375076 0.05632401 0.1082535
v 0.4375 0.02609634 0.1082554
v 0.375 0.02609634 0.216507
v 0.125 0.02442932 -0.433012
v 0 0.02442932 -0.433012
v -0.125 0.02442932 -0.433012
v 0.125 0.05404282 -0.433012
v 0.1446915 0.05404282 -0.08137131
v 0.136879 0.02609634 -0.07923317
v -0.1440964 0.05404282 -0.07565308
v -0.125 0.05404282 -0.433012
v -0.1362839 0.02609634 -0.07479858
v -0.21875 0.02609634 -0.03252125
v 0.21875 0.02609634 -0.03252125
v 0 0.02609634 -0.1732979
v 0 0.02442932 -0.2542667
v 0.1992416 0.07730865 -0.1098289
v -0.25 0.07730865 -0.433012
v 0.1875 0.07730865 -0.433012
v -0.1875 0.07730865 -0.433012
v -0.375 0.07730865 -0.216506
v -0.1985397 0.07730865 -0.1040497

vt 0.5283479 0.6997988
vt 0.7132539 0.6997988
vt 0.6208009 0.8599321
vt 0.8057069 0.8599321
vt 0.8981599 0.6997988
vt 0.8057069 0.5396655
vt 0.6208009 0.5396655
vt 0.7006468 0.7086485
vt 0.7006469 0.6909435
vt 0.6433942 0.7086485
vt 0.6433942 0.6909435
vt 0.7077646 0.6870632
vt 0.7077646 0.7125265
vt 0.7901055 0.6870632
vt 0.7901055 0.7125265
vt 0.748935 0.7125265
vt 0.6985705 0.1327063
vt 0.7896648 0.1327063
vt 0.698572 0.1249337
vt 0.7896663 0.1249337
vt 0.6931714 0.1197699
vt 0.7842692 0.1197699
vt 0.6931734 0.1119973
vt 0.7842712 0.1119973
vt 0.6123388 0.7988744
vt 0.6202953 0.8126553
vt 0.6590188 0.2034576
vt 0.6590196 0.184094
vt 0.5786669 0.2252501
vt 0.5866996 0.2401264
vt 0.7313379 0.2401626
vt 0.7393762 0.2252902
vt 0.6839469 0.7610151
vt 0.6839469 0.8126553
vt 0.7475985 0.8126553
vt 0.755555 0.7988744
vt 0.7274374 0.7144334
vt 0.7274374 0.7321383
vt 0.7202808 0.7321383
vt 0.7131246 0.7297355
vt 0.7131244 0.7262743
vt 0.6988114 0.7262743
vt 0.6844982 0.7262743
vt 0.6844984 0.7297355
vt 0.6773414 0.7321383
vt 0.6701848 0.7321383
vt 0.6701848 0.7144334
vt 0.6693633 0.7196796
vt 0.6693631 0.6799211
vt 0.7979306 0.6799211
vt 0.7979306 0.7196796
vt 0.7818596 0.7196796
vt 0.7657896 0.7142837
vt 0.7657882 0.7065111
vt 0.7336467 0.7065111
vt 0.7015048 0.7065111
vt 0.7015062 0.7142837
vt 0.6854342 0.7196796
vt 0.09107062 0.5116967
vt 0.05090778 0.4420992
vt 0.01074493 0.3725016
vt 0.6378395 0.1409543
vt 0.6781673 0.1409543
vt 0.6378395 0.1375634
vt 0.6783618 0.1377542
vt 0.688507 0.1527886
vt 0.7294849 0.1527886
vt 0.688457 0.1494648
vt 0.7294849 0.1495239
vt 0.3799017 0.2522514
vt 0.533037 0.4421989
vt 0.5732288 0.3726181
vt 0.292061 0.02461287
vt 0.3724146 0.02463028
vt 0.2117063 0.02459618
vt 0.2036098 0.1916237
vt 0.3441798 0.4352152
vt 0.4928463 0.5117791
vt 0.2065673 0.251123
vt 0.1955133 0.3586513
vt 0.2918662 0.4046396
vt 0.1504294 0.384668
vt 0.6661316 0.1129713
vt 0.6728157 0.1164433
vt 0.6360542 0.132975
vt 0.6400785 0.1393239
vt 0.686334 0.7025924
vt 0.6720208 0.7025924
vt 0.6577076 0.7059833
vt 0.6577076 0.7025924
vt 0.650551 0.7086473
vt 0.686334 0.7059833
vt 0.6934906 0.7086473
vt 0.6003664 0.1064818
vt 0.6080027 0.1064818
vt 0.5991063 0.143491
vt 0.6058896 0.1467533
vt 0.5967504 0.1494178
vt 0.5967495 0.1459565
vt 0.6364002 0.1491566
vt 0.6371062 0.1459566
vt 0.7701535 0.1372954
vt 0.7695367 0.1340212
vt 0.8100991 0.1375626
vt 0.8100985 0.1341796
vt 0.672021 0.7086489
vt 0.8121653 0.1583588
vt 0.8053861 0.1616106
vt 0.8109999 0.1206876
vt 0.80337 0.1206836
vt 0.6943716 0.161966
vt 0.7010517 0.1585151
vt 0.7271233 0.1843155
vt 0.7311598 0.1779688
vt 0.9408194 0.6608014
vt 0.9551326 0.6855925
vt 0.9336627 0.6608014
vt 0.9349269 0.6984694
vt 0.9658675 0.7165815
vt 0.9694459 0.7103837
vt 0.4879471 0.6787884
vt 0.4843667 0.6725918
vt 0.5129758 0.6229997
vt 0.5188007 0.660004
vt 0.5201324 0.6229973

vn 0 -1 0
vn 0.8660251 1.97909E-06 -0.5000007
vn 2.980232E-08 4.577674E-06 1
vn 0.4710945 -0.0001745622 -0.8820828
vn -0.4710766 6.323915E-05 -0.8820924
vn 0 1 0
vn 0.1480205 0.948935 -0.2785707
vn 0.1471877 0.9499383 -0.2755959
vn 0.1488534 0.9479318 -0.2815456
vn -0.1480395 0.9489197 -0.2786131
vn -0.1488686 0.947921 -0.281574
vn -0.1472106 0.9499184 -0.2756522
vn -0.8660235 -4.249257E-07 0.5000033
vn -0.8660562 8.569757E-05 0.4999467
vn -0.8659965 8.203637E-05 0.50005
vn 0.8660251 2.216561E-06 0.5000007
vn 0.8660263 -4.03643E-06 0.4999986
vn 0.8659968 -6.259043E-05 0.5000497
vn 0 0.9999889 -0.004711996
vn -0.004059302 0.9999716 -0.001570665
vn 0.003183804 0.9999849 -0.002226495
vn -0.9984357 0 0.05591123
vn -0.9802151 0.1356506 0.04346705
vn -0.9619944 0.2713012 0.03102287
vn 0.9613957 0.2703312 0.05137461
vn 0.98045 0.1351656 0.04142971
vn 0.9995043 0 0.03148481
vn -0.001701582 0.9999294 -0.005006959
vn -0.0002437765 0.9997886 -0.01372128
vn 0.0003277139 0.9999338 -0.00421567
vn -0.001308325 0.9998523 -0.009123364
vn -0.2100254 0.9147133 0.3452377
vn -0.1943022 0.9312301 0.3047979
vn -0.1785791 0.947747 0.2643581
vn 4.892249E-07 2.913992E-06 -1
vn -0.3488377 0.9370975 0.0126737
vn -0.3657892 0.9303523 0.01705336
vn -0.3827406 0.9236072 0.02143302
vn 0.5311072 -8.058581E-05 0.8473047
vn 0.5214933 0.08438532 0.8448023
vn 0.5118794 0.1688512 0.8422998
vn -0.5324239 0.2115479 0.8196172
vn -0.5308058 0.1058675 0.834061
vn -0.5291877 0.000187106 0.8485048
vn -0.8660252 1.484317E-06 -0.5000004
vn 0.3871911 0.921908 0.01299385
vn 0.3679981 0.929459 0.01581656
vn 0.3488052 0.9370099 0.01863928
vn 0.2170994 0.9168741 0.3349774
vn 0.1889454 0.9324356 0.3048275
vn 0.1607914 0.9479971 0.2746775

usemtl New_Material
f 12/16/3 4/14/3 11/15/3
f 4/14/3 12/16/3 3/12/3
f 12/16/3 10/13/3 3/12/3
f 48/106/45 1/9/45 26/8/45
f 1/9/45 48/106/45 7/11/45
f 48/106/45 45/10/45 7/11/45
f 1/1/1 2/2/1 3/3/1
f 4/4/1 2/2/1 5/5/1
f 3/3/1 2/2/1 4/4/1
f 5/5/1 2/2/1 6/6/1
f 6/6/1 2/2/1 7/7/1
f 7/7/1 2/2/1 1/1/1
f 21/36/6 10/35/6 20/33/6
f 10/35/6 12/34/6 20/33/6
f 11/26/6 20/33/6 12/34/6
f 11/26/6 19/25/6 20/33/6
f 24/44/15 25/45/15 23/43/15
f 10/38/13 21/39/14 3/37/13
f 21/39/14 17/40/14 18/41/14
f 3/37/13 21/39/14 18/41/14
f 18/41/14 22/42/13 3/37/13
f 3/37/13 22/42/13 1/47/14
f 22/42/13 23/43/15 1/47/14
f 23/43/15 25/45/15 1/47/14
f 25/45/15 26/46/14 1/47/14
f 9/51/16 27/52/17 5/50/17
f 27/52/17 29/54/17 5/50/17
f 29/54/17 27/52/17 28/53/17
f 5/50/17 29/54/17 30/55/16
f 5/50/17 30/55/16 4/49/16
f 4/49/16 30/55/16 15/56/18
f 4/49/16 15/56/18 19/58/18
f 4/49/16 19/58/18 11/48/16
f 19/58/18 15/56/18 13/57/18
f 46/125/6 44/124/6 8/123/6
f 44/124/6 27/121/6 8/123/6
f 27/121/6 9/122/6 8/123/6
f 45/115/6 48/116/6 47/117/6
f 48/116/6 49/118/6 47/117/6
f 25/119/6 49/118/6 26/120/6
f 49/118/6 48/116/6 26/120/6
f 46/91/35 31/90/35 34/89/35
f 46/91/35 8/10/35 31/90/35
f 6/11/35 31/90/35 8/10/35
f 32/88/35 31/90/35 6/11/35
f 33/87/35 32/88/35 7/9/35
f 32/88/35 6/11/35 7/9/35
f 45/8/35 33/87/35 7/9/35
f 33/87/35 45/8/35 47/93/35
f 47/93/35 38/92/35 33/87/35
f 42/80/29 36/81/30 43/82/31
f 31/59/19 32/60/20 36/81/30
f 32/60/20 43/82/31 36/81/30
f 43/82/31 39/79/28 42/80/29
f 32/60/20 33/61/21 43/82/31
f 33/61/21 39/79/28 43/82/31
f 15/72/6 30/71/6 16/70/6
f 18/74/6 16/70/6 22/73/6
f 22/73/6 40/76/6 23/75/6
f 16/70/6 40/76/6 22/73/6
f 16/70/6 39/79/28 40/76/6
f 39/79/28 36/81/30 42/80/29
f 39/79/28 16/70/6 36/81/30
f 41/77/6 36/81/30 16/70/6
f 30/71/6 41/77/6 16/70/6
f 30/71/6 29/78/6 41/77/6
f 5/11/2 6/9/2 8/8/2
f 8/8/2 9/10/2 5/11/2
f 16/20/4 14/18/4 13/17/4
f 13/17/4 15/19/4 16/20/4
f 18/24/5 17/22/5 14/21/5
f 14/21/5 16/23/5 18/24/5
f 13/29/7 14/28/8 20/27/7
f 20/27/7 19/30/9 13/29/7
f 17/32/10 21/31/11 20/27/10
f 20/27/10 14/28/12 17/32/10
f 36/65/24 35/63/23 34/62/22
f 34/62/22 31/64/23 36/65/24
f 33/69/27 38/67/26 37/66/25
f 37/66/25 39/68/26 33/69/27
f 27/85/33 44/83/32 35/84/33
f 35/84/33 28/86/34 27/85/33
f 44/96/37 46/94/36 34/95/37
f 34/95/37 35/97/38 44/96/37
f 37/100/40 24/98/39 23/99/40
f 23/99/40 39/101/41 37/100/40
f 28/104/43 35/102/42 36/103/43
f 36/103/43 29/105/44 28/104/43
f 47/109/47 49/107/46 37/108/47
f 37/108/47 38/110/48 47/109/47
f 24/113/50 37/111/49 49/112/50
f 49/112/50 25/114/51 24/113/50

